<?xml version="1.0" encoding="UTF-8"?>
<svg version="1.1" xmlns="http://www.w3.org/2000/svg" width="960" height="960">
<path d="M0 0 C1.23270126 -0.00701431 2.46540253 -0.01402863 3.73545837 -0.02125549 C7.68954127 -0.03865929 11.64354321 -0.04568904 15.59765625 -0.046875 C16.2709623 -0.04731686 16.94426834 -0.04775871 17.6379776 -0.04821396 C37.47615069 -0.05504389 57.00800184 0.19214469 76.66015625 3.203125 C77.85415039 3.37473145 79.04814453 3.54633789 80.27832031 3.72314453 C170.00237453 16.74535162 254.27583534 55.86661174 320.82421875 117.5859375 C323.43009836 119.99081263 326.06922532 122.35103007 328.72265625 124.703125 C336.1930594 131.4168796 343.3342122 138.47265231 349.85546875 146.1171875 C352.05031762 148.65409074 354.32434575 151.11134126 356.59765625 153.578125 C361.1869892 158.62776529 365.50335173 163.79311582 369.66015625 169.203125 C370.18206543 169.87956055 370.70397461 170.55599609 371.24169922 171.25292969 C422.1839601 237.48777152 455.15788 314.94408604 464.66015625 398.203125 C464.74735931 398.9509021 464.83456238 399.6986792 464.92440796 400.46911621 C466.78734841 416.87643206 467.01964739 433.20318494 466.97265625 449.703125 C466.97073305 451.04380278 466.96889252 452.38448069 466.96713257 453.72515869 C466.93086342 472.72713343 466.54266859 491.38945913 463.66015625 510.203125 C463.4885498 511.39711914 463.31694336 512.59111328 463.14013672 513.82128906 C451.05122972 597.11483059 416.61922641 674.66384501 362.66015625 739.203125 C362.22509766 739.72455078 361.79003906 740.24597656 361.34179688 740.78320312 C348.80203334 755.76371048 335.590356 770.68089103 320.734375 783.40625 C318.45857907 785.3777493 316.25092958 787.41446895 314.03515625 789.453125 C308.43679152 794.49761803 302.5534598 799.11979572 296.5859375 803.71435547 C294.62263597 805.23213091 292.67219262 806.76537773 290.72265625 808.30078125 C226.98553618 858.18898009 148.93128486 889.04185616 68.66015625 898.203125 C67.91237915 898.29032806 67.16460205 898.37753113 66.39416504 898.46737671 C49.98684919 900.33031716 33.66009631 900.56261614 17.16015625 900.515625 C15.81947847 900.5137018 14.47880056 900.51186127 13.13812256 900.51010132 C-5.86168524 900.4738363 -24.52907834 900.09493758 -43.33984375 897.203125 C-44.55510742 897.02620117 -45.77037109 896.84927734 -47.02246094 896.66699219 C-121.3912251 885.71873019 -192.13398583 857.49811531 -252.33984375 812.203125 C-253.22953857 811.54086914 -253.22953857 811.54086914 -254.13720703 810.86523438 C-266.46455158 801.68056908 -277.98860298 791.55801862 -289.33984375 781.203125 C-290.30664062 780.32914063 -291.2734375 779.45515625 -292.26953125 778.5546875 C-300.75036778 770.86651583 -309.05131386 763.03479995 -316.5 754.32421875 C-318.70884629 751.77771442 -320.99304929 749.3071234 -323.27734375 746.828125 C-327.8666767 741.77848471 -332.18303923 736.61313418 -336.33984375 731.203125 C-336.86175293 730.52668945 -337.38366211 729.85025391 -337.92138672 729.15332031 C-351.65207923 711.30075094 -364.2852289 692.83313232 -375.33984375 673.203125 C-375.80068359 672.39359375 -376.26152344 671.5840625 -376.73632812 670.75 C-405.02139539 620.90181736 -422.10148677 566.79118357 -430.33984375 510.203125 C-430.50645508 509.1193457 -430.67306641 508.03556641 -430.84472656 506.91894531 C-436.41780132 469.38434449 -436.08308842 427.68830239 -430.33984375 390.203125 C-430.1682373 389.00913086 -429.99663086 387.81513672 -429.81982422 386.58496094 C-416.68406755 296.07854103 -377.03547691 212.58125069 -315.33984375 145.203125 C-314.87964844 144.6978125 -314.41945313 144.1925 -313.9453125 143.671875 C-305.50085841 134.40302829 -297.00411768 125.20363591 -287.4609375 117.04296875 C-284.91443317 114.83412246 -282.44384215 112.54991946 -279.96484375 110.265625 C-274.91520346 105.67629205 -269.74985293 101.35992952 -264.33984375 97.203125 C-263.6634082 96.68121582 -262.98697266 96.15930664 -262.29003906 95.62158203 C-187.87409957 38.38710999 -94.84264536 0.36248771 0 0 Z " fill="#38FFFF" transform="translate(463.33984375,29.796875)"/>
<path d="M0 0 C1.20918503 0.64407544 2.41881949 1.28730784 3.62890625 1.9296875 C34.74659924 18.74834245 56.65498769 45.60649199 67.03710938 79.34082031 C70.8938304 92.51505506 73 106.27919655 73 120 C43.96 120 14.92 120 -15 120 C-16.32 113.73 -17.64 107.46 -19 101 C-24.62919345 85.02526183 -33.92507991 72.96791038 -49 65 C-79.65846621 51.06580394 -117.35260087 49.64069023 -148.93359375 61.33984375 C-162.58921859 66.73902362 -172.71672031 74.65324618 -178.84765625 88.171875 C-183.45870253 99.48847672 -183.68340345 111.86781607 -179.25 123.3515625 C-173.66530292 135.18413944 -163.54719036 141.04427284 -151.55273438 145.39453125 C-132.03814878 152.36992223 -111.91704127 157.0850718 -91.77534485 161.82366943 C-87.80996107 162.75882015 -83.84701633 163.70419762 -79.88378906 164.6484375 C-66.88754508 167.74148297 -53.8870034 170.8135159 -40.86328125 173.7890625 C-4.57142428 182.09964829 32.12902701 191.78744685 59 219 C60.02867187 220.03060547 60.02867187 220.03060547 61.078125 221.08203125 C80.97116377 242.3639984 87.78643356 273.21499844 87.18359375 301.5 C85.89784841 338.61890885 70.38914536 370.11348142 43.375 395.5 C17.81088631 418.81856194 -15.64004819 429.43729172 -49.1875 434.6875 C-49.94643555 434.80714111 -50.70537109 434.92678223 -51.48730469 435.05004883 C-64.04727192 436.88403811 -76.70156791 437.17260869 -89.375 437.125 C-90.05308716 437.12278442 -90.73117432 437.12056885 -91.42980957 437.11828613 C-145.32224418 436.9126019 -199.66644364 424.99615205 -239 386 C-239.88558594 385.12730469 -240.77117187 384.25460937 -241.68359375 383.35546875 C-266.07023448 357.97966631 -273.37623633 325.09903699 -275 291 C-245.96 291 -216.92 291 -187 291 C-185.35 298.26 -183.7 305.52 -182 313 C-178.39997494 322.40006543 -174.9642488 330.68238551 -168 338 C-167.37996094 338.67160156 -166.75992188 339.34320312 -166.12109375 340.03515625 C-156.5899056 349.42165843 -142.86784483 355.046958 -130 358 C-129.03755371 358.22212158 -129.03755371 358.22212158 -128.05566406 358.44873047 C-104.19857495 363.65381168 -76.86596985 362.68707111 -53 358 C-51.82050781 357.77183594 -50.64101563 357.54367187 -49.42578125 357.30859375 C-38.02222583 354.75337967 -28.22442932 350.14613502 -19 343 C-18.154375 342.3709375 -17.30875 341.741875 -16.4375 341.09375 C-8.40556711 334.1945256 -3.80462793 323.13079164 -2.77685547 312.74511719 C-1.97126548 300.2849887 -2.75231439 289.82594111 -10.875 279.8125 C-23.89838658 266.45084364 -43.52977242 261.26516666 -61.0625 256.75 C-62.22271164 256.45040878 -63.38292328 256.15081757 -64.57829285 255.84214783 C-80.11740012 251.8855862 -95.7911561 248.51434811 -111.4552002 245.09472656 C-127.45673116 241.60132528 -143.41288553 238.02396691 -159.2421875 233.80859375 C-161.01986259 233.336744 -161.01986259 233.336744 -162.83345032 232.85536194 C-198.48851107 223.19622248 -233.49828035 209.73205975 -253.125 176.375 C-257.32506493 168.89973909 -260.50051709 161.19567292 -263 153 C-263.21172852 152.31921387 -263.42345703 151.63842773 -263.64160156 150.93701172 C-267.17736722 138.90364129 -267.39059092 126.75412458 -267.4375 114.3125 C-267.44376404 113.53411774 -267.45002808 112.75573547 -267.45648193 111.95376587 C-267.52900013 97.68515324 -266.10312814 83.55934403 -261.375 70 C-260.99432373 68.89519287 -260.99432373 68.89519287 -260.60595703 67.76806641 C-250.98912889 41.04706317 -231.87059285 18.18602223 -208 3 C-206.9275 2.30519531 -205.855 1.61039062 -204.75 0.89453125 C-189.25149771 -8.55443772 -171.62989162 -14.07105272 -154 -18 C-153.31583008 -18.15307617 -152.63166016 -18.30615234 -151.92675781 -18.46386719 C-102.42961619 -29.15102295 -44.67790496 -24.74656128 0 0 Z " fill="#FEFFFF" transform="translate(574,273)"/>
<path d="M0 0 C0.66 0.33 1.32 0.66 2 1 C-8.56 11.56 -19.12 22.12 -30 33 C-30.66 32.67 -31.32 32.34 -32 32 C-23.31525464 22.39064297 -14.57904606 12.87405375 -4.69140625 4.47265625 C-3.05216211 3.04541597 -1.51774524 1.55487662 0 0 Z " fill="#97FFFF" transform="translate(181,142)"/>
</svg>
